<?xml version="1.0" encoding="UTF-8" standalone="no"?>
<!-- Created with Inkscape (http://www.inkscape.org/) -->

<svg
   xmlns:dc="http://purl.org/dc/elements/1.1/"
   xmlns:cc="http://creativecommons.org/ns#"
   xmlns:rdf="http://www.w3.org/1999/02/22-rdf-syntax-ns#"
   xmlns:svg="http://www.w3.org/2000/svg"
   xmlns="http://www.w3.org/2000/svg"
   xmlns:sodipodi="http://sodipodi.sourceforge.net/DTD/sodipodi-0.dtd"
   xmlns:inkscape="http://www.inkscape.org/namespaces/inkscape"
   width="48.669968mm"
   height="16.650866mm"
   viewBox="0 0 48.669969 16.650865"
   version="1.1"
   id="svg8"
   inkscape:version="0.92.4 (f8dce91, 2019-08-02)"
   sodipodi:docname="logo.svg">
  <defs
     id="defs2">
    <inkscape:path-effect
       effect="skeletal"
       id="path-effect869"
       is_visible="true"
       pattern="M 0,5 C 0,2.24 2.24,0 5,0 7.76,0 10,2.24 10,5 10,7.76 7.76,10 5,10 2.24,10 0,7.76 0,5 Z"
       copytype="single_stretched"
       prop_scale="0.26458333"
       scale_y_rel="false"
       spacing="0"
       normal_offset="0"
       tang_offset="0"
       prop_units="false"
       vertical_pattern="false"
       fuse_tolerance="0" />
    <inkscape:path-effect
       effect="skeletal"
       id="path-effect865"
       is_visible="true"
       pattern="M 0,5 C 0,2.24 2.24,0 5,0 7.76,0 10,2.24 10,5 10,7.76 7.76,10 5,10 2.24,10 0,7.76 0,5 Z"
       copytype="single_stretched"
       prop_scale="0.26458333"
       scale_y_rel="false"
       spacing="0"
       normal_offset="0"
       tang_offset="0"
       prop_units="false"
       vertical_pattern="false"
       fuse_tolerance="0" />
    <inkscape:path-effect
       effect="skeletal"
       id="path-effect861"
       is_visible="true"
       pattern="M 0,5 C 0,2.24 2.24,0 5,0 7.76,0 10,2.24 10,5 10,7.76 7.76,10 5,10 2.24,10 0,7.76 0,5 Z"
       copytype="single_stretched"
       prop_scale="0.26458333"
       scale_y_rel="false"
       spacing="0"
       normal_offset="0"
       tang_offset="0"
       prop_units="false"
       vertical_pattern="false"
       fuse_tolerance="0" />
    <inkscape:path-effect
       effect="skeletal"
       id="path-effect857"
       is_visible="true"
       pattern="M 0,5 C 0,2.24 2.24,0 5,0 7.76,0 10,2.24 10,5 10,7.76 7.76,10 5,10 2.24,10 0,7.76 0,5 Z"
       copytype="single_stretched"
       prop_scale="0.26458333"
       scale_y_rel="false"
       spacing="0"
       normal_offset="0"
       tang_offset="0"
       prop_units="false"
       vertical_pattern="false"
       fuse_tolerance="0" />
    <inkscape:path-effect
       effect="skeletal"
       id="path-effect853"
       is_visible="true"
       pattern="M 0,5 C 0,2.24 2.24,0 5,0 7.76,0 10,2.24 10,5 10,7.76 7.76,10 5,10 2.24,10 0,7.76 0,5 Z"
       copytype="single_stretched"
       prop_scale="0.26458333"
       scale_y_rel="false"
       spacing="0"
       normal_offset="0"
       tang_offset="0"
       prop_units="false"
       vertical_pattern="false"
       fuse_tolerance="0" />
    <inkscape:path-effect
       effect="skeletal"
       id="path-effect849"
       is_visible="true"
       pattern="M 0,5 C 0,2.24 2.24,0 5,0 7.76,0 10,2.24 10,5 10,7.76 7.76,10 5,10 2.24,10 0,7.76 0,5 Z"
       copytype="single_stretched"
       prop_scale="0.26458333"
       scale_y_rel="false"
       spacing="0"
       normal_offset="0"
       tang_offset="0"
       prop_units="false"
       vertical_pattern="false"
       fuse_tolerance="0" />
    <inkscape:path-effect
       effect="skeletal"
       id="path-effect869-9"
       is_visible="true"
       pattern="M 0,5 C 0,2.24 2.24,0 5,0 7.76,0 10,2.24 10,5 10,7.76 7.76,10 5,10 2.24,10 0,7.76 0,5 Z"
       copytype="single_stretched"
       prop_scale="0.26458333"
       scale_y_rel="false"
       spacing="0"
       normal_offset="0"
       tang_offset="0"
       prop_units="false"
       vertical_pattern="false"
       fuse_tolerance="0" />
    <inkscape:path-effect
       effect="skeletal"
       id="path-effect865-3"
       is_visible="true"
       pattern="M 0,5 C 0,2.24 2.24,0 5,0 7.76,0 10,2.24 10,5 10,7.76 7.76,10 5,10 2.24,10 0,7.76 0,5 Z"
       copytype="single_stretched"
       prop_scale="0.26458333"
       scale_y_rel="false"
       spacing="0"
       normal_offset="0"
       tang_offset="0"
       prop_units="false"
       vertical_pattern="false"
       fuse_tolerance="0" />
  </defs>
  <sodipodi:namedview
     id="base"
     pagecolor="#ffffff"
     bordercolor="#666666"
     borderopacity="1.0"
     inkscape:pageopacity="0.0"
     inkscape:pageshadow="2"
     inkscape:zoom="4"
     inkscape:cx="96.468944"
     inkscape:cy="27.936238"
     inkscape:document-units="mm"
     inkscape:current-layer="layer1"
     showgrid="false"
     inkscape:snap-text-baseline="false"
     inkscape:window-width="1366"
     inkscape:window-height="768"
     inkscape:window-x="0"
     inkscape:window-y="0"
     inkscape:window-maximized="1">
    <inkscape:grid
       type="xygrid"
       id="grid4620"
       originx="-162.10818"
       originy="-119.78171" />
  </sodipodi:namedview>
  <metadata
     id="metadata5">
    <rdf:RDF>
      <cc:Work
         rdf:about="">
        <dc:format>image/svg+xml</dc:format>
        <dc:type
           rdf:resource="http://purl.org/dc/dcmitype/StillImage" />
        <dc:title></dc:title>
      </cc:Work>
    </rdf:RDF>
  </metadata>
  <g
     inkscape:label="Layer 1"
     inkscape:groupmode="layer"
     id="layer1"
     transform="translate(-162.10815,-160.56741)">
    <flowRoot
       xml:space="preserve"
       id="flowRoot835"
       style="font-style:normal;font-weight:normal;font-size:40px;line-height:1.25;font-family:sans-serif;letter-spacing:0px;word-spacing:0px;fill:#000000;fill-opacity:1;stroke:none"
       transform="scale(0.26458333)"><flowRegion
         id="flowRegion837"><rect
           id="rect839"
           width="345"
           height="73"
           x="163"
           y="389.51968" /></flowRegion><flowPara
         id="flowPara841"></flowPara></flowRoot>    <text
       xml:space="preserve"
       style="font-style:normal;font-variant:normal;font-weight:bold;font-stretch:normal;font-size:10.58333302px;line-height:1.25;font-family:'Century Schoolbook L';-inkscape-font-specification:'Century Schoolbook L, Bold';font-variant-ligatures:normal;font-variant-caps:normal;font-variant-numeric:normal;font-feature-settings:normal;text-align:justify;letter-spacing:0px;word-spacing:0px;writing-mode:lr-tb;text-anchor:start;fill:#000000;fill-opacity:1;stroke:none;stroke-width:0.26458332"
       x="88.106255"
       y="106.76457"
       id="text845"><tspan
         sodipodi:role="line"
         id="tspan843"
         x="88.106255"
         y="115.81171"
         style="stroke-width:0.26458332" /></text>
    <rect
       style="opacity:1;fill:#ffffff;fill-opacity:0.98636367;stroke-width:0.26458332"
       id="rect4721"
       width="48.669968"
       height="16.650866"
       x="162.10815"
       y="160.56741"
       rx="5.0270829"
       ry="4.9578476" />
    <path
       style="fill:#008000;stroke:none;stroke-width:1.31782162px;stroke-linecap:butt;stroke-linejoin:miter;stroke-opacity:1"
       d="m 67.468749,100.01771 c 0.826478,-0.200034 2.564194,5.95286 5.191307,13.21914 0.243646,0.67389 0.485291,1.32853 0.72789,1.97141 1.236094,3.22396 1.955627,5.05764 3.225754,7.00154 l 0,0 c 0.893182,1.21151 1.112113,1.63047 1.813171,1.94854 l 0,0 c 0.213719,0.10937 0.355542,0.15552 0.508811,0.1954 l 0,0 10e-7,0 c 0.0697,0.0174 0.138127,0.0362 0.185246,0.0539 l 0,0 c 0,0 0,0 0,0 0.03301,0.0126 0.05841,0.0239 0.07774,0.0363 0.02067,0.0132 0.0339,0.0265 0.04295,0.0454 0,0 0,0 0,0 3.71e-4,7.8e-4 7.47e-4,0.002 0.0011,0.002 3.49e-4,7.9e-4 7.07e-4,0.002 0.001,0.002 0,0 0,0 0,0 0.0072,0.0176 0.01,0.0404 0.0087,0.0669 -0.0012,0.0249 -0.0058,0.0536 -0.01306,0.0867 0,0 0,0 0,0 l 0,0 c -0.0265,0.0583 -0.07931,0.12555 -0.161415,0.18985 l 0,0 0,0 c -0.159564,0.12291 -0.441946,0.24446 -0.813244,0.24696 l -10e-7,0 c -0.930976,-0.003 -2.076767,-0.53986 -3.093689,-1.71965 l 0,0 c -1.69073,-1.77889 -2.961089,-4.07976 -4.217744,-7.19923 -0.268879,-0.65805 -0.529198,-1.33478 -0.780295,-2.02982 -2.72531,-7.54364 -3.292268,-13.97566 -2.704214,-14.11799 z"
       id="path863"
       inkscape:connector-curvature="0"
       inkscape:path-effect="#path-effect865-3"
       inkscape:original-d="m 67.468749,100.01771 c 6.796836,28.08243 11.747336,24.48578 11.773958,24.47395"
       sodipodi:nodetypes="cc"
       transform="matrix(0.86806932,0,0,0.56193649,105.31794,106.23379)" />
    <path
       style="fill:#00ff00;stroke:none;stroke-width:1.25143063px;stroke-linecap:butt;stroke-linejoin:miter;stroke-opacity:1"
       d="m 77.919791,99.356249 c 0.240688,-0.09499 2.182052,1.870451 0.795181,5.853651 -0.65722,1.93928 -1.578827,3.3807 -2.656004,5.34316 0.143497,-0.27782 -0.291457,0.56445 -0.14796,0.28663 -0.839476,1.62915 -1.431878,2.90177 -1.423319,4.18964 -0.117714,1.44908 0.742383,2.91453 1.277305,3.80507 0.583491,0.9714 0.973924,1.55747 0.795331,1.76996 -0.148213,0.17635 -0.880438,-0.002 -1.874829,-0.81426 -0.928844,-0.7585 -2.298321,-2.30109 -2.575822,-4.66443 -0.121383,-1.93134 0.484876,-3.79126 1.458468,-5.54267 0.05752,-0.10347 0.115565,-0.20528 0.173923,-0.30539 1.07584,-1.94908 2.194871,-3.50619 2.887206,-4.9162 1.293701,-2.67112 0.848227,-4.830612 1.29052,-5.005161 z"
       id="path867"
       inkscape:connector-curvature="0"
       inkscape:path-effect="#path-effect869-9"
       inkscape:original-d="m 77.919791,99.356249 c 2.994044,7.586671 -10.592286,13.488181 -1.35947,21.248111"
       sodipodi:nodetypes="cc"
       transform="matrix(0.51406177,0.0377281,-0.07149154,0.62052399,141.08941,96.630646)" />
    <text
       xml:space="preserve"
       style="font-style:normal;font-variant:normal;font-weight:bold;font-stretch:normal;font-size:12.90450954px;line-height:1.25;font-family:'Century Schoolbook L';-inkscape-font-specification:'Century Schoolbook L, Bold';font-variant-ligatures:normal;font-variant-caps:normal;font-variant-numeric:normal;font-feature-settings:normal;text-align:justify;letter-spacing:0px;word-spacing:0px;writing-mode:lr-tb;text-anchor:start;fill:#008000;fill-opacity:1;stroke:none;stroke-width:1.38538873"
       x="173.34523"
       y="172.43776"
       id="text873"
       transform="scale(0.98854601,1.0115867)"><tspan
         sodipodi:role="line"
         id="tspan871"
         x="173.34523"
         y="172.43776"
         style="fill:#008000;stroke-width:1.38538873">endor</tspan></text>
  </g>
</svg>
